<?xml version="1.0" standalone="no"?>
<!DOCTYPE svg PUBLIC "-//W3C//DTD SVG 20010904//EN"
 "http://www.w3.org/TR/2001/REC-SVG-20010904/DTD/svg10.dtd">
<svg version="1.0" xmlns="http://www.w3.org/2000/svg"
 width="260.000000pt" height="260.000000pt" viewBox="0 0 260.000000 260.000000"
 preserveAspectRatio="xMidYMid meet">
<metadata>
Created by potrace 1.11, written by Peter Selinger 2001-2013
</metadata>
<g transform="translate(0.000000,260.000000) scale(0.100000,-0.100000)"
fill="#000000" stroke="none">
<path d="M1270 2592 c0 -6 4 -13 9 -17 11 -6 48 -114 56 -164 28 -167 -28
-323 -214 -601 -57 -85 -129 -193 -161 -240 -137 -205 -227 -386 -269 -540
-26 -97 -31 -132 -38 -266 -7 -142 12 -237 72 -360 47 -97 137 -201 225 -261
62 -42 182 -97 265 -123 81 -24 112 -22 229 21 253 92 437 288 489 520 18 84
21 233 6 329 -12 80 -63 245 -100 326 -83 184 -88 272 -21 407 9 18 -38 -14
-82 -57 -101 -99 -153 -225 -155 -378 -1 -32 -5 -58 -10 -58 -5 0 -18 23 -31
51 -21 51 -28 145 -15 209 3 14 8 39 11 55 3 17 16 73 29 125 54 217 76 429
53 519 -40 153 -65 211 -128 296 -67 89 -220 233 -220 207z m184 -1527 c127
-58 215 -190 221 -331 15 -355 -391 -544 -640 -298 -161 159 -148 435 28 577
83 67 144 87 252 83 61 -3 94 -10 139 -31z"/>
</g>
</svg>
