<svg width="178px" height="365px" viewBox="0 0 178 365" version="1.1" xmlns="http://www.w3.org/2000/svg" xmlns:xlink="http://www.w3.org/1999/xlink">
    <g id="Page-1" stroke="none" stroke-width="1" fill="none" fill-rule="evenodd">
        <g id="sparky">
            <g id="Layer_2">
                <g id="Guru">
                    <path d="M148.93,346.14 C148.93,346.14 128.05,364.07 88.42,364.07 C48.79,364.07 27.92,346.14 27.92,346.14 C27.92,346.14 48.79,328.2 88.42,328.21 C128.05,328.22 148.93,346.14 148.93,346.14 Z" id="Shape" stroke="#FFFFFF" fill="#E1E1E6" fill-rule="nonzero"></path>
                    <path d="M0.54,302.8 C0.54,302.8 28.2,290.8 57.69,307.8 C87.18,324.8 90.6,354.8 90.6,354.8 C90.6,354.8 62.94,366.8 33.45,349.8 C3.96,332.8 0.54,302.8 0.54,302.8 Z" id="Shape" stroke="#FFFFFF" fill="#E1E1E6" fill-rule="nonzero"></path>
                    <path d="M176.55,302.8 C176.55,302.8 148.89,290.8 119.4,307.8 C89.91,324.8 86.49,354.8 86.49,354.8 C86.49,354.8 114.15,366.8 143.64,349.8 C173.13,332.8 176.55,302.8 176.55,302.8 Z" id="Shape" stroke="#FFFFFF" fill="#E1E1E6" fill-rule="nonzero"></path>
                    <path d="M36.28,265 C36.28,265 66.28,268.42 83.28,297.92 C100.28,327.42 88.28,355.07 88.28,355.07 C88.28,355.07 58.28,351.66 41.28,322.16 C24.28,292.66 36.28,265 36.28,265 Z" id="Shape" stroke="#FFFFFF" fill="#E1E1E6" fill-rule="nonzero"></path>
                    <path d="M140.33,265 C140.33,265 110.33,268.42 93.33,297.92 C76.33,327.42 88.33,355.07 88.33,355.07 C88.33,355.07 118.33,351.66 135.33,322.16 C152.33,292.66 140.33,265 140.33,265 Z" id="Shape" stroke="#FFFFFF" fill="#E1E1E6" fill-rule="nonzero"></path>
                    <path d="M88.43,249.07 C88.43,249.07 112.67,267.02 112.67,301.07 C112.67,335.12 88.43,353.07 88.43,353.07 C88.43,353.07 64.19,335.13 64.19,301.07 C64.19,267.01 88.43,249.07 88.43,249.07 Z" id="Shape" stroke="#FFFFFF" fill="#E1E1E6" fill-rule="nonzero"></path>
                    <path d="M49.23,320.32 C52.23,317.01 51.58,312.2 51.23,310.42 L51.23,310.42 C49.4973831,311.915171 47.6556021,313.278958 45.72,314.5 C45.72,314.5 40.62,314.05 37.57,316.14 C34.52,318.23 33.17,323.79 44.57,322.3 C46.2230588,321.821789 47.8140237,321.150496 49.31,320.3" id="Shape" fill="#E6CDAD"></path>
                    <path d="M35.59,322.72 L35.47,322.72 C36.081292,322.790768 36.698708,322.790768 37.31,322.72 C36.7547127,322.923435 36.1452873,322.923435 35.59,322.72 L35.59,322.72 Z" id="Shape" fill="#E6CDAD"></path>
                    <path d="M69.3,284.82 L58.38,278.74 C58.38,278.74 61.91,295.35 58.55,301.32 C56,305.88 51.8,309 46.8,312.57 C47,314.57 52.69,319.46 48.67,321.76 C54.37,318.5 63.67,310.23 66.46,308.55 C69,307 69.76,291.8 69.3,284.82 Z" id="Shape" fill="#EB5514"></path>
                    <path d="M53.77,308 C53.77,308 61.24,302.9 63.31,296 C63.31,296 63.13,304.33 51.77,309.7 L53.77,308 Z" id="Shape" fill="#E14B0A"></path>
                    <path d="M48.14,312.19 C50.02,311.6 60.38,308.44 64.14,302.28 C64.14,302.28 59.14,307.59 52.79,308.9 C51.29,309.9 50.43,310.81 48.14,312.19" id="Shape" fill="#E14B0A"></path>
                    <path d="M129.69,320.32 C126.69,317.01 127.34,312.2 127.69,310.42 L127.69,310.42 C129.422617,311.915171 131.264398,313.278958 133.2,314.5 C133.2,314.5 138.3,314.05 141.35,316.14 C144.4,318.23 145.75,323.79 134.35,322.3 C132.696941,321.821789 131.105976,321.150496 129.61,320.3" id="Shape" fill="#E6CDAD"></path>
                    <path d="M109.2,284.82 L120.12,278.74 C120.12,278.74 116.59,295.35 119.95,301.32 C122.51,305.88 126.7,308.98 131.7,312.57 C131.5,314.57 125.81,319.46 129.83,321.76 C124.13,318.5 114.83,310.23 112.04,308.55 C109.47,307 108.73,291.8 109.2,284.82 Z" id="Shape" fill="#EB5514"></path>
                    <path d="M124.73,308 C124.73,308 117.26,302.9 115.19,296 C115.19,296 115.37,304.33 126.73,309.7 L124.73,308 Z" id="Shape" fill="#E14B0A"></path>
                    <path d="M130.35,312.19 C128.47,311.6 118.11,308.44 114.35,302.28 C114.35,302.28 119.35,307.59 125.7,308.9 C127.2,309.9 128.06,310.81 130.35,312.19" id="Shape" fill="#E14B0A"></path>
                    <path d="M101.29,266.18 L101.29,266.18 C100.312519,264.966365 99.7142781,263.491632 99.57,261.94 C99.57,261.65 99.57,261.37 99.51,261.08 L94.12,261.13 L88.06,261.19 L84.73,261.19 L78.03,261.25 L77.8,261.25 L77.8,261.98 C77.58,264.53 76.09,268.46 69.38,270.25 C63.29,271.88 62.17,275.55 58.51,279.05 C58.51,279.05 66.26,281.3 67.09,288.3 C67.43,291.19 106.48,285 107.01,284.38 C109.41,281.58 107.51,271.05 101.25,266.15" id="Shape" fill="#E6CDAD"></path>
                    <path d="M133.37,329.57 L88.77,334 L44.17,329.54 C44.17,329.54 30.29,333.49 43.54,343.1 C56.79,352.71 78.92,346.94 85.68,345.61 C86.59,345.43 87.3,345.3 87.86,345.21 C88.1416287,345.367713 88.4359947,345.501516 88.74,345.61 L88.74,345.08 L88.79,345.08 L88.79,345.61 C89.0939876,345.501472 89.3883501,345.367671 89.67,345.21 C90.24,345.3 90.95,345.43 91.85,345.61 C98.61,346.94 120.74,352.7 133.99,343.1 C147.24,333.5 133.36,329.54 133.36,329.54" id="Shape" fill="#BEBEC3"></path>
                    <path d="M114.85,312.84 L107.9,312.84 C106.43,309.92 109.75,292.09 110.25,289.23 C116.86,284.05 121.36,280.06 120.64,279.32 C119.44629,278.201604 118.150655,277.197236 116.77,276.32 C117.64,275.37 118.02,274.73 117.77,274.47 C115.4,272.03 108.62,266.81 103.71,266.93 C101.48,266.98 100.38,275.43 88.21,275.43 C77.54,275.43 76.93,267.17 73.88,267.1 C68.98,266.99 61.88,272.04 59.56,274.48 C59.31,274.74 59.69,275.38 60.56,276.33 C58.83,277.48 57.47,276.93 57.39,278.68 C57.39,279.68 66.56,284.6 66.89,289.1 C67.1,290.1 72.97,306.59 70.43,312.86 C70.43,312.86 44.17,315.11 44.17,326.86 C44.17,338.61 52.33,342.64 64.17,342.64 C71.59,342.64 81.07,340.86 89.54,339.76 C98.01,340.86 107.48,342.64 114.9,342.64 C126.69,342.64 134.9,338.58 134.9,326.86 C134.9,315.14 114.85,312.84 114.85,312.84 Z" id="Shape" fill="#FA6423"></path>
                    <path d="M116.77,276.3 C116.77,276.3 99,300 89,305.69 C89,305.69 101.2,293.62 115.76,272.78 L117.76,274.45 C117.76,274.45 118.22,274.74 116.76,276.3" id="Shape" fill="#EB5514"></path>
                    <path d="M118.94,314.12 C116.934055,313.544211 114.888563,313.116396 112.82,312.84 L111.44,312.84 C101.21,318.7 94.01,318.25 87.8,318.25 C87.08,318.06 86.41,317.86 85.8,317.65 C96.8543666,321.135883 108.861743,319.852874 118.93,314.11" id="Shape" fill="#EB5514"></path>
                    <path d="M119.06,281.77 C119.06,281.77 111,289 108.83,291.5 C106.66,294 86.83,310.04 80.75,310.88 C80.75,310.88 86.58,307.49 89.49,305.37 C92.4,303.25 108.2,291.42 112.21,286.77 C116.22,282.12 119.77,278.5 119.77,278.5 L120.57,279.22 C120.736899,279.379169 120.770211,279.633178 120.65,279.83 C120.216571,280.541525 119.688399,281.190807 119.08,281.76" id="Shape" fill="#EB5514"></path>
                    <path d="M59.88,274.9 C64.66,279.6 73.82,291.02 74.63,298.15 C75.01,301.52 73.55,302.69 70.38,303.57 C77.63,301.2 67.55,284.07 59.88,274.9 Z" id="Shape" fill="#EB5514"></path>
                    <path d="M115.53,338.62 C113.43,338.62 111.16,338.47 108.81,338.25 C108.34,338.07 78.92,326.92 67.42,326.25 C67.42,326.25 83.91,328.84 89.49,335.66 C80.79,336.79 71.06,338.66 63.49,338.66 C54.32,338.66 47.29,336.27 44.42,329.89 C45.75,339.29 53.42,342.63 64.17,342.63 C71.59,342.63 81.07,340.85 89.53,339.75 C98,340.85 107.47,342.63 114.9,342.63 C125.61,342.63 133.33,339.28 134.65,329.89 C131.77,336.27 124.75,338.66 115.58,338.66" id="Shape" fill="#EB5514"></path>
                    <path d="M78,261.29 C30,261.13 29.47,218.94 29.47,218.94 C30.4,165.88 87.79,165.88 87.79,165.88 C87.79,165.88 146.13,166.77 146.11,218.94 C146.11,218.94 146.11,258.94 99.61,261.08 L78,261.29 Z" id="Shape" fill="#E6CDAD"></path>
                    <path d="M42.44,248.48 L42.44,248.48 L42.34,248.29 C34.63,240.61 31.5,231.29 30.23,225.2 L28.14,221.2 C28.14,221.2 12.89,212.29 12,227.9 C12,227.9 9.76,234.59 22.77,246.63 L23.56,247.33 L23.56,247.33 C26.01,249.62 30.87,253.6 32.17,256.41 C33.47,259.22 39.95,261.71 42.42,257.31 C44.89,252.91 42.42,248.44 42.42,248.44" id="Shape" fill="#E6CDAD"></path>
                    <path d="M133.3,248.44 L133.3,248.44 L133.4,248.25 C141.11,240.57 144.24,231.25 145.51,225.16 L147.6,221.16 C147.6,221.16 162.85,212.24 163.75,227.85 C163.75,227.85 165.99,234.54 152.98,246.58 L152.19,247.28 L152.19,247.28 C149.74,249.57 144.88,253.55 143.58,256.36 C142.28,259.17 135.8,261.66 133.33,257.26 C130.86,252.86 133.33,248.39 133.33,248.39" id="Shape" fill="#E6CDAD"></path>
                    <path d="M19.66,202.86 C19.66,202.86 21,230.95 41.29,247.48 C38.9477259,244.962978 36.9318563,242.16092 35.29,239.14 C35.64,238.89 39.44,235.72 35.29,218.07 C29.07,191.45 52.53,161.66 87.86,175.92 C123.19,161.66 146.59,191.46 140.37,218.07 C136.32,235.41 139.91,238.77 140.37,239.12 C138.446742,242.556029 136.027394,245.689724 133.19,248.42 C155.29,232 156,202.86 156,202.86 C156,129 87.84,132.2 87.84,132.2 C87.84,132.2 19.66,129.94 19.66,202.86 Z" id="Shape" fill="#828287"></path>
                    <path d="M87.75,247.35 C85.2902713,247.342599 82.8759069,246.687271 80.75,245.45 C80.2450587,245.129766 79.8891054,244.620946 79.7613865,244.036819 C79.6336675,243.452693 79.7447847,242.841748 80.07,242.34 C80.7478464,241.296517 82.1394057,240.993228 83.19,241.66 C86.0462745,243.247179 89.5247392,243.22442 92.36,241.6 C93.4482866,240.983736 94.8300221,241.363825 95.45,242.45 C95.7478036,242.969063 95.8255309,243.585706 95.6658505,244.162434 C95.5061701,244.739162 95.1223599,245.228018 94.6,245.52 C92.5318618,246.712941 90.1875228,247.343844 87.8,247.35" id="Shape" fill="#BEA585"></path>
                    <path d="M111.56,198 C102.59462,197.983099 94.8374358,204.235532 92.95,213 L84.32,213 C82.2893974,203.527647 73.4382391,197.114493 63.8046311,198.135481 C54.171023,199.156468 46.8607479,207.28244 46.8607479,216.97 C46.8607479,226.65756 54.171023,234.783532 63.8046311,235.804519 C73.4382391,236.825507 82.2893974,230.412353 84.32,220.94 L92.95,220.94 C95.0190185,230.700582 104.285293,237.198072 114.166729,235.817119 C124.048165,234.436166 131.178132,225.647265 130.492015,215.693419 C129.805898,205.739573 121.537458,198.012082 111.56,198 Z M65.71,228.6 C60.9891115,228.575643 56.747928,225.709377 54.9647272,221.338155 C53.1815265,216.966934 54.2076161,211.95193 57.5643819,208.632366 C60.9211478,205.312803 65.9472749,204.342664 70.2983526,206.174468 C74.6494304,208.006271 77.4682548,212.279133 77.44,217 C77.390513,223.439886 72.1500663,228.631189 65.71,228.62 L65.71,228.6 Z M111.56,228.6 C106.839112,228.575643 102.597928,225.709377 100.814727,221.338155 C99.0315265,216.966934 100.057616,211.95193 103.414382,208.632366 C106.771148,205.312803 111.797275,204.342664 116.148353,206.174468 C120.49943,208.006271 123.318255,212.279133 123.29,217 C123.240513,223.439886 118.000066,228.631189 111.56,228.62 L111.56,228.6 Z" id="Shape" fill="#828287"></path>
                    <path d="M24.19,222.81 C21.75,225.32 21.79,231.2 24.5,237.02 C27.61,243.69 33.05,247.74 36.66,246.08 C37.2810314,245.784986 37.820142,245.342023 38.23,244.79 C31.9945201,238.581663 27.2131139,231.068025 24.23,222.79" id="Shape" fill="#BEA585"></path>
                    <path d="M151.78,222.83 C154.21,225.34 154.16,231.23 151.44,237.04 C148.32,243.7 142.86,247.75 139.26,246.04 C138.642383,245.743962 138.106752,245.301037 137.7,244.75 C143.964374,238.549642 148.773493,231.035393 151.78,222.75" id="Shape" fill="#BEA585"></path>
                    <path d="M71.25,306.62 C71.25,306.62 71.71,312.12 84.46,312.84 C79.9064379,313.329261 75.3135621,313.329261 70.76,312.84 L71.25,306.62 Z" id="Shape" fill="#EB5514"></path>
                    <path d="M73.88,268.57 C73.88,268.57 78.05,279.74 95.21,276.24 C95.21,276.24 87.09,281.66 80.21,277.91 C72.88,273.9 73.88,268.57 73.88,268.57 Z" id="Shape" fill="#EB5514"></path>
                    <path d="M51.32,320.16 C49.3831249,321.046423 47.9244927,322.727497 47.32,324.77 C47.32,324.77 48.74,322.44 54.72,322.44 C60.7,322.44 61.86,323.33 69.96,323.55 C69.96,323.55 53.19,321 51.28,320.16" id="Shape" fill="#EB5514"></path>
                    <path d="M78,261.29 L77.77,261.29 C77.77,261.29 79,263.29 88.3,263.6 C91.59,263.71 97.3,262.69 99.48,261.09 L78,261.29 Z" id="Shape" fill="#BEA585"></path>
                    <path d="M113.58,135.18 C93.18,111.71 151.36,42.67 85.25,0 C121.7,46.92 47.03,93.13 30.25,157.51 C29.1876343,161.566215 28.376098,165.68401 27.82,169.84 C33.37,160.22 57.1,148.16 77.82,161.12 C110.51,181.6 131.95,146.93 148.88,169.79 C148.378734,165.649919 147.603703,161.547601 146.56,157.51 C139.46,130.06 122.91,116.45 129.39,96.85 C116.46,106.53 114,123.62 113.58,135.18 Z" id="Shape" fill="#828287"></path>
                </g>
            </g>
        </g>
    </g>
</svg>
